<?xml version="1.0" encoding="UTF-8" standalone="no"?><!DOCTYPE svg PUBLIC "-//W3C//DTD SVG 1.1//EN" "http://www.w3.org/Graphics/SVG/1.1/DTD/svg11.dtd"><svg width="100%" height="100%" viewBox="0 0 1971 929" version="1.1" xmlns="http://www.w3.org/2000/svg" xmlns:xlink="http://www.w3.org/1999/xlink" xml:space="preserve" xmlns:serif="http://www.serif.com/" style="fill-rule:evenodd;clip-rule:evenodd;stroke-linejoin:round;stroke-miterlimit:2;"><rect id="Artboard6" x="0" y="0" width="1970.84" height="928.5" style="fill:none;"/><g><path d="M1010.74,290.587c97.42,0 142.65,-99.739 153.088,-149.609c-17.396,45.231 -111.337,38.272 -198.319,41.751c-68.334,2.734 -105.72,88.454 -121.32,133.272c-0.286,0.821 -0.564,1.628 -0.835,2.42c20.875,-31.313 45.611,-27.834 167.386,-27.834Z" style="fill:#014c1b;fill-rule:nonzero;"/><path d="M1033.06,397.081c-36.51,-61.804 -117.446,-52.702 -153.351,-40.425c35.536,-6.104 66.278,56.131 101.108,109.995c27.864,43.091 102.676,39.592 136.599,32.455c-27.912,-1.377 -38.719,-24.768 -84.356,-102.025Z" style="fill:#014c1b;fill-rule:nonzero;"/><path d="M843.358,381.153c-3.615,7.881 -13.801,29.019 -25.63,50.524c-14.787,26.881 -20.702,54.41 25.63,187.845c46.331,-133.435 40.416,-160.964 25.63,-187.845c-11.829,-21.505 -22.016,-42.643 -25.63,-50.524Z" style="fill:#014c1b;"/></g><path d="M292.376,704.439l-21.828,-0l-0,47.906l13.156,-0l-0,-12.667l8.672,0c13.168,0 21.578,-6.576 21.578,-17.578c-0,-11.085 -8.41,-17.661 -21.578,-17.661Zm-0.918,25.083l-7.754,-0l-0,-14.844l7.754,0c6.171,0 9.256,2.669 9.256,7.422c0,4.67 -3.085,7.422 -9.256,7.422Z" style="fill:#014c1b;"/><path d="M340.964,752.345l13.156,-0l0,-37.667l15.084,0l-0,-10.239l-43.323,-0l-0,10.239l15.083,0l0,37.667Z" style="fill:#014c1b;"/><path d="M387.459,753.012c4.664,-0 7.911,-3.415 7.911,-7.578c0,-4.248 -3.247,-7.412 -7.911,-7.412c-4.747,-0 -7.995,3.164 -7.995,7.412c0,4.163 3.248,7.578 7.995,7.578Z" style="fill:#014c1b;"/><path d="M482.954,714.512l-0,-10.073l-37.656,-0l-0,47.906l13.156,-0l-0,-16.583l21.666,-0l0,-10.073l-21.666,-0l-0,-11.177l24.5,-0Z" style="fill:#014c1b;"/><path d="M529.964,752.345l14.156,-0l-10.659,-15.081c6.162,-2.831 9.743,-8.076 9.743,-15.164c-0,-11.085 -8.41,-17.661 -21.578,-17.661l-21.828,-0l-0,47.906l13.156,-0l-0,-12.833l8.088,-0l8.922,12.833Zm0,-30.245c0,4.67 -3.085,7.422 -9.256,7.422l-7.754,-0l-0,-14.844l7.754,0c6.171,0 9.256,2.669 9.256,7.422Z" style="fill:#014c1b;"/><rect x="561.798" y="704.439" width="13.156" height="47.906" style="fill:#014c1b;"/><path d="M652.196,752.345l-0.167,-47.906l-11.097,-0l-16.74,27.827l-17.154,-27.827l-10.99,-0l-0,47.906l12.239,-0l0,-25.328l12.741,20.246l5.912,-0l12.824,-21.079l0.083,26.161l12.349,-0Z" style="fill:#014c1b;"/><path d="M709.206,752.345l12.998,-0l-21.579,-47.906l-12.998,-0l-21.496,47.906l12.748,-0l3.999,-9.5l22.412,-0l3.916,9.5Zm-22.329,-18.99l7.249,-17.343l7.165,17.343l-14.414,0Z" style="fill:#014c1b;"/><path d="M769.131,704.439l-0,26.494l-22.092,-26.494l-10.825,-0l0,47.906l12.906,-0l0,-26.411l22.092,26.411l10.825,-0l0,-47.906l-12.906,-0Z" style="fill:#014c1b;"/><path d="M812.214,752.345l13.156,-0l0,-37.667l15.084,0l-0,-10.239l-43.323,-0l-0,10.239l15.083,0l0,37.667Z" style="fill:#014c1b;"/><path d="M888.54,752.345l12.997,-0l-21.579,-47.906l-12.998,-0l-21.496,47.906l12.748,-0l3.999,-9.5l22.413,-0l3.916,9.5Zm-22.33,-18.99l7.249,-17.343l7.165,17.343l-14.414,0Z" style="fill:#014c1b;"/><path d="M945.714,752.345l14.156,-0l-10.659,-15.081c6.162,-2.831 9.743,-8.076 9.743,-15.164c-0,-11.085 -8.41,-17.661 -21.578,-17.661l-21.828,-0l-0,47.906l13.156,-0l-0,-12.833l8.088,-0l8.922,12.833Zm0,-30.245c0,4.67 -3.085,7.422 -9.256,7.422l-7.754,-0l-0,-14.844l7.754,0c6.171,0 9.256,2.669 9.256,7.422Z" style="fill:#014c1b;"/><path d="M1013.46,752.345l12.998,-0l-21.579,-47.906l-12.998,-0l-21.496,47.906l12.748,-0l3.999,-9.5l22.412,-0l3.916,9.5Zm-22.329,-18.99l7.249,-17.343l7.165,17.343l-14.414,0Z" style="fill:#014c1b;"/><path d="M1108.29,752.345l12.997,-0l-21.579,-47.906l-12.998,-0l-21.496,47.906l12.748,-0l3.999,-9.5l22.413,-0l3.916,9.5Zm-22.33,-18.99l7.249,-17.343l7.165,17.343l-14.414,0Z" style="fill:#014c1b;"/><path d="M1165.96,741.021c-2.334,1.001 -4.752,1.501 -7.503,1.501c-8.505,-0 -14.257,-5.752 -14.257,-14.089c-0,-8.503 5.919,-14.171 14.09,-14.171c4.752,-0 8.836,1.75 12.083,5.585l8.66,-7.75c-4.747,-5.744 -11.574,-8.575 -20.91,-8.575c-15.755,-0 -27.163,10.49 -27.163,24.911c0,14.339 11.158,24.829 27.246,24.829c6.754,-0 14.415,-2.165 19.744,-6.078l-0,-19.417l-11.99,-0l0,13.254Z" style="fill:#014c1b;"/><path d="M1227.88,752.345l14.156,-0l-10.659,-15.081c6.162,-2.831 9.742,-8.076 9.742,-15.164c0,-11.085 -8.41,-17.661 -21.578,-17.661l-21.828,-0l0,47.906l13.156,-0l0,-12.833l8.089,-0l8.922,12.833Zm-0,-30.245c-0,4.67 -3.085,7.422 -9.256,7.422l-7.755,-0l0,-14.844l7.755,0c6.171,0 9.256,2.669 9.256,7.422Z" style="fill:#014c1b;"/><rect x="1259.71" y="704.439" width="13.156" height="47.906" style="fill:#014c1b;"/><path d="M1326.88,704.439l-0,26.494l-22.092,-26.494l-10.825,-0l0,47.906l12.906,-0l0,-26.411l22.092,26.411l10.825,-0l0,-47.906l-12.906,-0Z" style="fill:#014c1b;"/><path d="M1396.87,752.345l12.997,-0l-21.579,-47.906l-12.997,-0l-21.496,47.906l12.747,-0l3.999,-9.5l22.413,-0l3.916,9.5Zm-22.329,-18.99l7.248,-17.343l7.166,17.343l-14.414,0Z" style="fill:#014c1b;"/><path d="M1429.96,752.345l13.156,-0l0,-37.667l15.084,0l-0,-10.239l-43.323,-0l-0,10.239l15.083,0l0,37.667Z" style="fill:#014c1b;"/><path d="M1495.46,753.262c14.335,-0 22.661,-8.242 22.661,-21.573l0,-27.25l-12.989,-0l-0,26.833c-0,7.417 -3.252,11.25 -9.505,11.25c-6.337,-0 -9.672,-3.833 -9.672,-11.25l-0,-26.833l-13.156,-0l-0,27.25c-0,13.331 8.41,21.573 22.661,21.573Z" style="fill:#014c1b;"/><path d="M1568.96,752.345l14.156,-0l-10.659,-15.081c6.162,-2.831 9.743,-8.076 9.743,-15.164c-0,-11.085 -8.41,-17.661 -21.578,-17.661l-21.828,-0l-0,47.906l13.156,-0l-0,-12.833l8.088,-0l8.922,12.833Zm0,-30.245c0,4.67 -3.085,7.422 -9.256,7.422l-7.754,-0l-0,-14.844l7.754,0c6.171,0 9.256,2.669 9.256,7.422Z" style="fill:#014c1b;"/><path d="M1636.71,752.345l12.998,-0l-21.579,-47.906l-12.998,-0l-21.496,47.906l12.748,-0l3.999,-9.5l22.412,-0l3.916,9.5Zm-22.329,-18.99l7.249,-17.343l7.165,17.343l-14.414,0Z" style="fill:#014c1b;"/><path d="M1663.71,752.345l36.573,-0l0,-10.24l-23.417,0l0,-37.666l-13.156,-0l0,47.906Z" style="fill:#014c1b;"/></svg>