<?xml version="1.0" encoding="UTF-8" standalone="no"?><!DOCTYPE svg PUBLIC "-//W3C//DTD SVG 1.1//EN" "http://www.w3.org/Graphics/SVG/1.1/DTD/svg11.dtd"><svg width="100%" height="100%" viewBox="0 0 929 929" version="1.1" xmlns="http://www.w3.org/2000/svg" xmlns:xlink="http://www.w3.org/1999/xlink" xml:space="preserve" xmlns:serif="http://www.serif.com/" style="fill-rule:evenodd;clip-rule:evenodd;stroke-linejoin:round;stroke-miterlimit:2;"><rect id="Artboard6" x="0" y="0" width="928.5" height="928.5" style="fill:none;"/><g><path d="M505.877,316.878c160.122,0 234.464,-163.933 251.619,-245.9c-28.593,74.342 -182.995,62.905 -325.96,68.623c-112.316,4.493 -173.764,145.385 -199.405,219.048c-0.47,1.349 -0.927,2.676 -1.373,3.978c34.312,-51.467 74.968,-45.749 275.119,-45.749Z" style="fill:#fff;fill-rule:nonzero;"/><path d="M542.563,491.914c-60.009,-101.583 -193.037,-86.622 -252.05,-66.443c58.408,-10.033 108.935,92.257 166.183,180.789c45.798,70.826 168.76,65.074 224.516,53.344c-45.877,-2.263 -63.639,-40.71 -138.649,-167.69Z" style="fill:#fff;fill-rule:nonzero;"/><path d="M230.758,465.734c-5.94,12.953 -22.683,47.696 -42.126,83.042c-24.304,44.183 -34.025,89.43 42.126,308.746c76.151,-219.316 66.43,-264.563 42.126,-308.746c-19.443,-35.346 -36.185,-70.089 -42.126,-83.042Z" style="fill:#fff;"/></g></svg>